HIERARCHY
ROOT Hips
{
	OFFSET 0.000000 35.082581 0.000000
	CHANNELS 6 Xposition Yposition Zposition Xrotation Yrotation Zrotation 
	JOINT Spine
	{
		OFFSET 0.000000 6.876099 0.125700
		CHANNELS 3 Xrotation Yrotation Zrotation
		JOINT Spine1
		{
			OFFSET 0.000000 5.730043 0.104720
			CHANNELS 3 Xrotation Yrotation Zrotation
			JOINT Spine1_split
			{
				OFFSET 0.000000 5.730043 0.104720
				CHANNELS 3 Xrotation Yrotation Zrotation
				JOINT Spine2
				{
					OFFSET 0.000000 5.730043 0.104720
					CHANNELS 3 Xrotation Yrotation Zrotation
					JOINT Neck
					{
						OFFSET 0.000000 10.314075 0.188496
						CHANNELS 3 Xrotation Yrotation Zrotation
						JOINT Head
						{
							OFFSET 0.000000 7.643700 -2.377400
							CHANNELS 3 Xrotation Yrotation Zrotation
							JOINT HeadTop_End
							{
								OFFSET 0.000000 43.788605 -13.619600
								CHANNELS 3 Xrotation Yrotation Zrotation
								End Site
								{
									OFFSET 0.000000 0.000000 0.000000
								}
							}
						}
					}
					JOINT LeftShoulder
					{
						OFFSET 2.196100 4.412489 0.087492
						CHANNELS 3 Xrotation Yrotation Zrotation
						JOINT LeftShoulder_split
						{
							OFFSET 2.196100 4.412489 0.087492
							CHANNELS 3 Xrotation Yrotation Zrotation
							JOINT LeftArm
							{
								OFFSET 8.771219 -2.981674 -0.026999
								CHANNELS 3 Xrotation Yrotation Zrotation
								JOINT LeftForeArm
								{
									OFFSET 8.512804 0.000000 -0.000000
									CHANNELS 3 Xrotation Yrotation Zrotation
									JOINT LeftHand
									{
										OFFSET 18.484802 0.000000 -0.000000
										CHANNELS 3 Xrotation Yrotation Zrotation
										JOINT LeftHandThumb1
										{
											OFFSET 2.499420 -1.158070 2.653252
											CHANNELS 3 Xrotation Yrotation Zrotation
											JOINT LeftHandThumb2
											{
												OFFSET 2.370079 -1.368366 1.368366
												CHANNELS 3 Xrotation Yrotation Zrotation
												JOINT LeftHandThumb3
												{
													OFFSET 2.676727 -1.545410 1.545409
													CHANNELS 3 Xrotation Yrotation Zrotation
													JOINT LeftHandThumb4
													{
														OFFSET 1.692226 -0.977005 0.977007
														CHANNELS 3 Xrotation Yrotation Zrotation
														End Site
														{
															OFFSET 0.000000 0.000000 0.000000
														}
													}
												}
											}
										}
										JOINT LeftHandIndex1
										{
											OFFSET 7.924831 -0.457527 2.345128
											CHANNELS 3 Xrotation Yrotation Zrotation
											JOINT LeftHandIndex2
											{
												OFFSET 3.643303 0.000000 0.000000
												CHANNELS 3 Xrotation Yrotation Zrotation
												JOINT LeftHandIndex3
												{
													OFFSET 3.810799 0.000000 0.000000
													CHANNELS 3 Xrotation Yrotation Zrotation
													JOINT LeftHandIndex4
													{
														OFFSET 2.403702 0.000000 0.000000
														CHANNELS 3 Xrotation Yrotation Zrotation
														End Site
														{
															OFFSET 0.000000 0.000000 0.000000
														}
													}
												}
											}
										}
										JOINT LeftHandMiddle1
										{
											OFFSET 8.563995 0.000000 -0.000000
											CHANNELS 3 Xrotation Yrotation Zrotation
											JOINT LeftHandMiddle2
											{
												OFFSET 3.861618 0.000000 0.000000
												CHANNELS 3 Xrotation Yrotation Zrotation
												JOINT LeftHandMiddle3
												{
													OFFSET 3.701603 0.000000 0.000000
													CHANNELS 3 Xrotation Yrotation Zrotation
													JOINT LeftHandMiddle4
													{
														OFFSET 2.322544 0.000000 0.000000
														CHANNELS 3 Xrotation Yrotation Zrotation
														End Site
														{
															OFFSET 0.000000 0.000000 0.000000
														}
													}
												}
											}
										}
										JOINT LeftHandRing1
										{
											OFFSET 8.426460 -0.424637 -3.286992
											CHANNELS 3 Xrotation Yrotation Zrotation
											JOINT LeftHandRing2
											{
												OFFSET 3.126408 0.000000 0.000000
												CHANNELS 3 Xrotation Yrotation Zrotation
												JOINT LeftHandRing3
												{
													OFFSET 3.085026 0.000000 0.000000
													CHANNELS 3 Xrotation Yrotation Zrotation
													JOINT LeftHandRing4
													{
														OFFSET 1.644005 0.000000 0.000000
														CHANNELS 3 Xrotation Yrotation Zrotation
														End Site
														{
															OFFSET 0.000000 0.000000 0.000000
														}
													}
												}
											}
										}
									}
								}
							}
						}
					}
					JOINT RightShoulder
					{
						OFFSET -2.196100 4.412496 0.070690
						CHANNELS 3 Xrotation Yrotation Zrotation
						JOINT RightShoulder_split
						{
							OFFSET -2.196100 4.412496 0.070690
							CHANNELS 3 Xrotation Yrotation Zrotation
							JOINT RightArm
							{
								OFFSET -8.771282 -2.981682 -0.094208
								CHANNELS 3 Xrotation Yrotation Zrotation
								JOINT RightForeArm
								{
									OFFSET -8.494598 0.000000 0.000000
									CHANNELS 3 Xrotation Yrotation Zrotation
									JOINT RightHand
									{
										OFFSET -18.483803 0.000000 0.000001
										CHANNELS 3 Xrotation Yrotation Zrotation
										JOINT RightHandThumb1
										{
											OFFSET -2.527351 -1.008072 2.575253
											CHANNELS 3 Xrotation Yrotation Zrotation
											JOINT RightHandThumb2
											{
												OFFSET -2.321518 -1.340328 1.340329
												CHANNELS 3 Xrotation Yrotation Zrotation
												JOINT RightHandThumb3
												{
													OFFSET -2.657753 -1.534454 1.534455
													CHANNELS 3 Xrotation Yrotation Zrotation
													JOINT RightHandThumb4
													{
														OFFSET -1.807510 -1.043568 1.043567
														CHANNELS 3 Xrotation Yrotation Zrotation
														End Site
														{
															OFFSET 0.000000 0.000000 0.000000
														}
													}
												}
											}
										}
										JOINT RightHandIndex1
										{
											OFFSET -8.811420 0.015533 2.887987
											CHANNELS 3 Xrotation Yrotation Zrotation
											JOINT RightHandIndex2
											{
												OFFSET -3.537502 0.000000 0.000000
												CHANNELS 3 Xrotation Yrotation Zrotation
												JOINT RightHandIndex3
												{
													OFFSET -3.356201 0.000000 0.000000
													CHANNELS 3 Xrotation Yrotation Zrotation
													JOINT RightHandIndex4
													{
														OFFSET -1.933098 0.000000 0.000000
														CHANNELS 3 Xrotation Yrotation Zrotation
														End Site
														{
															OFFSET 0.000000 0.000000 0.000000
														}
													}
												}
											}
										}
										JOINT RightHandMiddle1
										{
											OFFSET -8.178135 0.000000 0.000000
											CHANNELS 3 Xrotation Yrotation Zrotation
											JOINT RightHandMiddle2
											{
												OFFSET -3.901302 0.000000 0.000000
												CHANNELS 3 Xrotation Yrotation Zrotation
												JOINT RightHandMiddle3
												{
													OFFSET -3.909599 0.000000 0.000000
													CHANNELS 3 Xrotation Yrotation Zrotation
													JOINT RightHandMiddle4
													{
														OFFSET -2.376003 0.000000 0.000000
														CHANNELS 3 Xrotation Yrotation Zrotation
														End Site
														{
															OFFSET 0.000000 0.000000 0.000000
														}
													}
												}
											}
										}
										JOINT RightHandRing1
										{
											OFFSET -7.559013 0.014137 -2.865403
											CHANNELS 3 Xrotation Yrotation Zrotation
											JOINT RightHandRing2
											{
												OFFSET -3.449306 0.000000 0.000000
												CHANNELS 3 Xrotation Yrotation Zrotation
												JOINT RightHandRing3
												{
													OFFSET -3.362106 0.000000 0.000000
													CHANNELS 3 Xrotation Yrotation Zrotation
													JOINT RightHandRing4
													{
														OFFSET -2.076401 0.000000 0.000000
														CHANNELS 3 Xrotation Yrotation Zrotation
														End Site
														{
															OFFSET 0.000000 0.000000 0.000000
														}
													}
												}
											}
										}
									}
								}
							}
						}
					}
				}
			}
		}
	}
	JOINT LeftUpLeg
	{
		OFFSET 10.205400 -3.823500 0.155100
		CHANNELS 3 Xrotation Yrotation Zrotation
		JOINT LeftLeg
		{
			OFFSET 0.708757 -12.982077 0.567790
			CHANNELS 3 Xrotation Yrotation Zrotation
			JOINT LeftFoot
			{
				OFFSET -0.708756 -10.717838 -2.184338
				CHANNELS 3 Xrotation Yrotation Zrotation
				JOINT LeftToeBase
				{
					OFFSET 0.108149 -7.191104 7.560241
					CHANNELS 3 Xrotation Yrotation Zrotation
					JOINT LeftToe_End
					{
						OFFSET 0.070230 0.081724 4.490308
						CHANNELS 3 Xrotation Yrotation Zrotation
						End Site
						{
							OFFSET 0.000000 0.000000 0.000000
						}
					}
				}
			}
		}
	}
	JOINT RightUpLeg
	{
		OFFSET -10.205400 -3.823500 0.005500
		CHANNELS 3 Xrotation Yrotation Zrotation
		JOINT RightLeg
		{
			OFFSET -0.708756 -12.982134 0.610632
			CHANNELS 3 Xrotation Yrotation Zrotation
			JOINT RightFoot
			{
				OFFSET 0.708754 -10.717769 -1.945823
				CHANNELS 3 Xrotation Yrotation Zrotation
				JOINT RightToeBase
				{
					OFFSET -0.108140 -7.191069 7.372968
					CHANNELS 3 Xrotation Yrotation Zrotation
					JOINT RightToe_End
					{
						OFFSET -0.070227 0.081735 4.479403
						CHANNELS 3 Xrotation Yrotation Zrotation
						End Site
						{
							OFFSET 0.000000 0.000000 0.000000
						}
					}
				}
			}
		}
	}
}
MOTION
Frames: 4
Frame Time: 0.016667
-9.295526 27.653738 -3.465010 36.000455 4.315017 -3.883006 11.166562 1.812329 0.787555 9.606824 1.909024 0.899771 0.000000 0.000000 0.000000 9.603331 2.011865 0.811204 -0.524615 -2.137134 -0.972093 -33.188251 -13.301682 4.013187 -0.000001 0.000001 -0.000000 1.414460 -22.723527 -8.784367 0.000000 0.000000 0.000000 11.762079 -10.125593 -53.585389 0.000031 -69.152237 0.000042 9.634472 -7.078034 51.536482 -3.236110 1.418131 8.402909 5.654930 12.269294 1.647800 -0.143286 6.321514 3.004574 -0.000002 0.000003 -0.000003 -2.869254 -11.236241 -14.304755 0.189434 1.607164 -13.444112 0.538645 2.674365 -22.771641 0.000002 -0.000000 0.000000 -1.015594 -2.322585 -17.138020 0.372019 2.236746 -18.883776 0.349726 2.170527 -18.304132 -0.000001 -0.000001 -0.000001 0.425070 2.386059 -20.199036 0.525203 2.642133 -22.481668 0.427918 2.393823 -20.267666 0.000000 -0.000001 -0.000001 3.076700 26.719382 7.630329 0.000000 0.000000 0.000000 -0.858345 44.777918 17.984942 -0.000003 15.067945 0.000006 -12.088580 -18.720854 2.445792 11.401660 -6.367855 -1.590887 -8.836363 -28.068838 -6.744434 -1.218082 0.026847 -2.106285 0.000002 -0.000002 -0.000002 1.584814 -10.189950 8.836253 0.110127 -1.235152 10.190465 0.104689 -1.204466 9.934524 0.000001 -0.000001 0.000000 0.067139 -0.965880 7.951947 0.067139 -0.965879 7.951941 0.067142 -0.965891 7.951936 -0.000003 0.000000 0.000000 -0.761389 3.643572 10.438909 0.104632 -1.204194 9.932231 -0.681569 -1.331621 9.841751 -0.000001 -0.000000 -0.000000 -58.539735 -25.353932 34.449282 40.347983 2.867248 -5.541566 -1.274460 11.151448 -36.474737 -1.113738 0.000010 -0.000007 0.000000 0.000001 0.000000 -59.321941 3.697594 -29.241006 57.662424 2.138923 0.345072 -26.255831 -10.428694 27.760430 0.000002 -0.000001 0.000005 0.000000 -0.000001 -0.000000 
-9.162973 27.453926 -3.434837 37.464967 4.206684 -3.781366 11.356162 1.939261 0.798501 9.817430 2.025246 0.983093 0.000000 0.000000 0.000000 9.811166 2.152152 0.886990 -0.715582 -2.246421 -1.135933 -34.116624 -13.747781 3.784624 -0.000002 -0.000000 -0.000000 1.416188 -22.973083 -8.880209 0.000000 0.000000 0.000000 11.192762 -9.120345 -53.018783 -0.000009 -70.505843 0.000018 10.038167 -7.077211 52.367122 -3.374873 1.231293 8.584188 5.793799 12.624824 1.716452 -0.109075 6.710996 3.041335 0.000000 0.000000 -0.000006 -2.849404 -11.834705 -13.679898 0.167883 1.514196 -12.652651 0.539127 2.675516 -22.781947 0.000004 -0.000000 0.000000 -1.107516 -2.724907 -16.827242 0.358595 2.197128 -18.536775 0.336375 2.129757 -17.948132 0.000002 0.000001 0.000001 0.422352 2.378715 -20.134025 0.523091 2.636999 -22.435570 0.419803 2.371770 -20.072632 -0.000000 -0.000003 -0.000002 3.187590 27.214289 7.729332 0.000000 0.000000 0.000000 -2.835461 44.048412 16.782880 0.000002 15.523330 0.000004 -11.553898 -18.245696 1.205169 11.420365 -6.347013 -1.613750 -8.885695 -28.126227 -6.728583 -1.266714 0.123350 -2.096321 0.000000 -0.000000 0.000001 1.580421 -10.229631 8.766659 0.108808 -1.227716 10.128400 0.103355 -1.196861 9.871159 -0.000001 0.000002 0.000001 0.064972 -0.950258 7.822437 0.064954 -0.950262 7.822423 0.064971 -0.950255 7.822453 -0.000000 -0.000002 0.000001 -0.755248 3.690487 10.276201 0.101180 -1.184334 9.766749 -0.689360 -1.310113 9.676082 -0.000001 0.000001 -0.000003 -61.736980 -24.525341 34.064274 42.287255 2.920543 -5.470983 -2.122462 9.810380 -36.070191 -1.399294 0.000001 -0.000001 0.000000 -0.000001 -0.000000 -61.308891 4.140138 -29.748756 58.423348 2.535011 0.039852 -26.375583 -10.610806 28.217496 0.000017 -0.000002 0.000001 0.000000 0.000001 -0.000000 
-9.034890 27.261389 -3.378399 39.073142 4.326576 -3.574219 11.445466 2.052105 0.793899 9.969256 2.124027 1.135355 0.000000 0.000000 0.000000 9.956427 2.298933 1.031305 -0.838453 -2.418144 -1.228872 -35.049000 -14.115563 3.169138 0.000004 0.000001 -0.000001 1.450529 -23.720953 -8.828592 0.000000 0.000000 0.000000 11.826642 -9.065737 -52.805623 0.000024 -71.719916 0.000027 10.805686 -6.917961 53.874893 -3.512176 1.046269 8.763081 5.931022 12.976954 1.783629 -0.075414 7.096615 3.077537 -0.000005 -0.000004 -0.000006 -2.817154 -12.428212 -13.059486 0.147798 1.421858 -11.869165 0.539615 2.676647 -22.792148 -0.000004 -0.000001 -0.000001 -1.194137 -3.124438 -16.519642 0.345531 2.157829 -18.193254 0.323403 2.089316 -17.595708 -0.000000 -0.000000 -0.000001 0.419679 2.371440 -20.069649 0.520988 2.631939 -22.389949 0.411859 2.349907 -19.879563 -0.000002 -0.000002 -0.000002 3.294705 27.536635 7.886910 0.000000 0.000000 0.000000 -5.270269 43.242904 15.996342 -0.000006 15.853537 0.000003 -11.364514 -17.432022 -0.170942 11.427816 -6.338767 -1.622792 -8.905271 -28.148950 -6.722353 -1.285945 0.161519 -2.092362 0.000002 -0.000000 0.000001 1.578681 -10.245326 8.739119 0.108263 -1.224779 10.103828 0.102839 -1.193866 9.846090 0.000001 0.000001 0.000001 0.064133 -0.944075 7.771179 0.064134 -0.944076 7.771185 0.064121 -0.944053 7.771183 -0.000001 0.000000 -0.000000 -0.752778 3.709058 10.211784 0.099848 -1.176465 9.701251 -0.692427 -1.301601 9.610512 0.000002 -0.000001 0.000003 -65.037034 -23.604475 33.512275 43.695585 2.981157 -5.466368 -2.557360 8.258045 -35.575211 -1.425593 -0.000004 -0.000004 -0.000000 0.000000 -0.000000 -63.328387 4.570157 -30.624748 59.288733 3.059675 -0.160857 -26.676760 -10.829262 28.616619 0.000008 -0.000000 -0.000007 0.000000 0.000000 -0.000000 
-8.899015 27.057364 -3.313072 40.702030 4.572305 -3.344585 11.490551 2.115844 0.814885 10.064956 2.170637 1.237802 0.000000 0.000000 0.000000 10.048259 2.372607 1.130298 -0.902464 -2.527068 -1.383377 -35.906591 -14.329184 2.536111 -0.000003 -0.000000 0.000000 1.473623 -24.423875 -8.886961 0.000000 0.000000 0.000000 12.773707 -9.396222 -52.694179 0.000057 -72.757470 0.000051 11.913183 -6.670314 56.008016 -3.647179 0.864203 8.938389 6.065756 13.323437 1.848955 -0.042524 7.475890 3.112938 -0.000004 0.000003 -0.000007 -2.773172 -13.012694 -12.447480 0.129301 1.330789 -11.098651 0.540083 2.677757 -22.802192 -0.000001 -0.000001 -0.000001 -1.275081 -3.518489 -16.217285 0.332943 2.119122 -17.855380 0.310878 2.049463 -17.249115 -0.000002 -0.000000 0.000001 0.417073 2.364275 -20.006351 0.518937 2.626927 -22.345078 0.404098 2.328378 -19.689677 -0.000005 0.000000 0.000002 3.339833 27.785957 7.894902 0.000000 0.000000 0.000000 -7.494339 42.668998 15.410821 -0.000006 16.135793 0.000010 -11.314879 -17.019375 -1.634180 11.432230 -6.333851 -1.628205 -8.916908 -28.162528 -6.718610 -1.297463 0.184329 -2.089993 -0.000002 0.000003 0.000003 1.577619 -10.254716 8.722666 0.107953 -1.223007 10.089152 0.102515 -1.192048 9.831122 0.000001 -0.000000 0.000002 0.063622 -0.940382 7.740553 0.063613 -0.940366 7.740584 0.063610 -0.940384 7.740563 -0.000002 0.000000 -0.000000 -0.751276 3.720135 10.173315 0.099050 -1.171776 9.662120 -0.694265 -1.296499 9.571356 0.000001 0.000001 0.000002 -68.460448 -22.450258 32.820206 45.060899 3.090258 -5.340081 -2.998003 6.600662 -35.012236 -1.430660 -0.000005 0.000002 -0.000000 -0.000000 0.000000 -65.329967 4.973170 -31.717387 60.244461 3.701942 -0.327992 -27.089837 -11.080398 28.998565 -0.000073 0.000000 -0.000011 0.000000 -0.000001 0.000000 
